<?xml version="1.0" standalone="no"?>
<!DOCTYPE svg PUBLIC "-//W3C//DTD SVG 20010904//EN"
 "http://www.w3.org/TR/2001/REC-SVG-20010904/DTD/svg10.dtd">
<svg version="1.0" xmlns="http://www.w3.org/2000/svg"
 width="1920.000000pt" height="1086.000000pt" viewBox="0 0 1920.000000 1086.000000"
 preserveAspectRatio="xMidYMid meet">

<g transform="translate(0.000000,1086.000000) scale(0.100000,-0.100000)"
fill="#000000" stroke="none">
<path d="M0 5430 l0 -5430 9600 0 9600 0 0 5430 0 5430 -9600 0 -9600 0 0
-5430z m14109 2309 c33 -12 61 -52 61 -89 0 -32 -53 -80 -88 -80 -37 0 -78 31
-86 66 -13 50 14 88 80 114 1 0 15 -5 33 -11z m-387 -41 c24 -20 28 -44 12
-67 -18 -25 -56 -27 -78 -5 -20 19 -20 34 0 62 17 25 42 28 66 10z m-6302
-1033 l0 -815 170 0 170 0 -2 -282 -3 -283 -167 -3 -168 -2 0 -260 0 -260
-365 0 -365 0 0 260 0 260 -652 2 -652 3 -62 265 c-59 254 -61 266 -44 285 9
11 185 220 391 465 205 245 512 610 682 813 l309 367 379 0 379 0 0 -815z
m6170 0 l0 -815 173 -2 172 -3 0 -280 0 -280 -172 -3 -173 -2 0 -260 0 -260
-360 0 -360 0 0 260 0 260 -650 0 c-608 0 -650 1 -658 18 -5 9 -36 130 -67
267 l-58 251 699 832 699 832 377 0 378 0 0 -815z m-7637 763 c21 -25 22 -57
1 -86 -13 -19 -24 -22 -57 -20 -52 4 -77 39 -62 85 19 53 81 64 118 21z m8465
13 c8 -4 12 -19 10 -32 -2 -18 -9 -24 -28 -24 -28 0 -39 27 -20 50 14 17 20
18 38 6z m-4477 -175 c223 -58 389 -150 556 -308 48 -46 80 -68 96 -68 53 0
227 -53 317 -97 123 -59 215 -148 249 -238 34 -89 27 -205 -17 -299 -42 -90
-104 -175 -189 -261 -69 -69 -70 -71 -83 -145 -72 -430 -388 -803 -808 -954
-176 -63 -428 -87 -607 -57 -300 50 -576 208 -772 442 -27 33 -41 40 -133 63
-329 82 -515 282 -470 502 28 132 99 246 244 387 99 97 100 99 124 180 109
378 426 704 802 826 157 51 234 61 425 56 140 -3 187 -8 266 -29z m1664 -22
c83 -39 53 -164 -40 -164 -36 0 -85 50 -85 87 0 34 24 71 54 83 30 12 34 12
71 -6z m-397 -30 c30 -21 29 -59 -3 -80 -23 -15 -27 -15 -50 0 -32 21 -33 59
-3 80 12 9 25 16 28 16 3 0 16 -7 28 -16z m-5843 -38 c0 -36 -27 -56 -52 -40
-40 25 -20 77 26 72 21 -2 26 -8 26 -32z m8835 -31 c27 -32 -23 -82 -55 -55
-15 13 -20 51 -8 63 12 12 50 7 63 -8z m-8462 -149 c6 -29 -15 -43 -35 -24
-14 14 -14 20 -3 33 16 19 34 15 38 -9z m6171 -60 c17 -20 2 -46 -25 -46 -26
0 -40 20 -30 45 7 19 40 20 55 1z m-6801 -79 c53 -48 12 -147 -61 -147 -93 0
-120 129 -35 165 37 15 65 10 96 -18z m3063 -43 c17 -21 0 -49 -31 -49 -31 0
-48 28 -31 49 8 9 21 16 31 16 10 0 23 -7 31 -16z m-168 -165 c14 -23 1 -67
-23 -74 -23 -7 -55 8 -64 31 -4 9 1 28 9 41 18 28 61 29 78 2z m3677 2 c23
-45 -30 -81 -62 -41 -13 17 -15 26 -8 41 14 25 56 25 70 0z m-3562 -200 c21
-13 10 -46 -16 -49 -24 -4 -38 18 -28 43 6 17 24 19 44 6z m6326 -1074 c22
-16 18 -65 -5 -80 -47 -29 -101 32 -64 73 21 23 44 25 69 7z m-6269 -227 c12
-39 -21 -68 -56 -50 -23 13 -25 56 -3 68 23 13 52 4 59 -18z m-3251 -16 c22
-21 20 -51 -4 -64 -28 -15 -60 4 -60 36 0 22 9 30 47 43 1 1 9 -6 17 -15z
m5882 -49 c21 -32 7 -69 -30 -87 -55 -24 -103 53 -60 96 25 25 71 20 90 -9z
m3665 -74 c48 -48 36 -111 -26 -137 -94 -39 -168 83 -88 146 37 29 79 26 114
-9z m-9151 -36 c15 -18 10 -45 -12 -59 -33 -20 -69 20 -54 60 7 18 50 18 66
-1z m2538 -46 c3 -28 -16 -43 -43 -33 -15 6 -21 45 -8 58 16 16 48 1 51 -25z
m6046 -35 c22 -21 20 -40 -6 -58 -15 -11 -26 -12 -40 -5 -23 12 -24 55 0 68
23 14 28 14 46 -5z m-7606 -20 c4 -27 -21 -47 -48 -39 -20 6 -28 44 -13 59 15
15 58 1 61 -20z m5897 -17 c13 -10 16 -21 11 -41 -6 -24 -11 -27 -39 -24 -25
2 -33 8 -35 26 -4 25 13 52 32 52 7 0 20 -6 31 -13z m-1634 -118 c26 -50 -35
-93 -75 -53 -19 18 -20 28 -6 55 15 27 66 26 81 -2z m-4129 -26 c37 -33 11
-103 -39 -103 -28 0 -63 33 -63 60 0 26 34 60 62 60 12 0 30 -7 40 -17z m3649
-13 c39 -21 7 -80 -35 -64 -19 7 -21 45 -4 62 15 15 15 15 39 2z m-1953 -46
c31 -36 29 -79 -7 -115 -58 -57 -141 -23 -141 58 1 43 16 68 51 82 34 14 70 5
97 -25z m-3048 1 c15 -19 4 -52 -21 -60 -11 -4 -26 -1 -34 5 -15 13 -20 51 -8
63 12 12 50 7 63 -8z m9120 -26 c0 -24 -27 -36 -48 -22 -23 14 -25 29 -7 47
21 20 55 5 55 -25z m-1763 -70 c14 -14 6 -39 -12 -39 -18 0 -28 17 -21 35 6
18 18 19 33 4z m-6999 -41 c43 -41 21 -124 -38 -143 -54 -17 -110 26 -110 85
0 78 88 113 148 58z m6582 8 c6 -8 10 -25 8 -38 -6 -42 -78 -32 -78 11 0 37
46 55 70 27z m-3552 -8 c7 -7 12 -25 12 -40 0 -40 -39 -58 -75 -34 -27 18 -31
36 -15 67 12 22 59 26 78 7z m5158 -66 c17 -11 22 -35 12 -54 -12 -24 -55 -23
-68 2 -20 38 20 76 56 52z m-5746 -648 l0 -96 31 26 c57 48 157 27 185 -39 10
-25 14 -79 14 -195 l0 -160 -65 0 -65 0 0 129 c0 137 -7 161 -50 161 -43 0
-50 -24 -50 -161 l0 -130 -67 3 -68 3 -3 265 c-1 146 0 270 3 277 3 9 26 13
70 13 l65 0 0 -96z m4438 38 c3 -52 3 -52 -25 -50 -34 2 -53 -8 -53 -28 0 -10
12 -14 40 -14 l40 0 0 -55 0 -55 -40 0 -40 0 0 -150 0 -150 -65 0 -64 0 -3
148 c-3 144 -3 147 -25 150 -21 3 -23 9 -23 58 0 50 2 54 24 54 21 0 24 6 29
47 4 37 12 54 37 76 29 26 37 28 98 25 l67 -3 3 -53z m1752 -222 l0 -280 -65
0 c-58 0 -65 2 -65 20 0 25 -8 25 -36 -1 -59 -55 -169 -21 -214 66 -34 66 -35
180 -3 240 35 66 65 88 129 93 46 4 61 1 84 -17 16 -11 32 -21 35 -21 3 0 5
41 5 90 l0 90 65 0 65 0 0 -280z m-8602 235 c29 -13 55 -31 58 -38 6 -18 -47
-109 -61 -103 -100 44 -115 48 -139 42 -33 -8 -44 -32 -24 -52 8 -8 44 -23 81
-34 87 -24 131 -52 151 -94 46 -97 -9 -208 -117 -237 -78 -21 -217 12 -265 64
l-21 22 35 47 35 47 55 -30 c76 -39 154 -39 154 1 0 25 -17 36 -85 55 -121 35
-162 71 -171 153 -7 64 26 128 81 159 58 33 161 32 233 -2z m2140 -47 c3 -46
4 -47 40 -50 l37 -3 3 -57 3 -58 -41 0 -41 0 3 -87 3 -88 38 1 37 1 0 -58 0
-58 -41 -11 c-83 -23 -159 13 -173 81 -3 18 -6 74 -6 125 0 87 -1 94 -20 94
-18 0 -20 7 -20 60 0 53 2 60 20 60 17 0 20 7 20 50 l0 51 68 -3 67 -3 3 -47z
m4150 0 c3 -46 4 -47 40 -50 l37 -3 3 -57 3 -58 -41 0 -41 0 3 -87 3 -88 38 1
37 1 0 -58 0 -58 -41 -11 c-45 -12 -104 -6 -131 14 -34 25 -48 81 -48 186 0
93 -1 100 -20 100 -18 0 -20 7 -20 60 0 53 2 60 20 60 17 0 20 7 20 50 l0 51
68 -3 67 -3 3 -47z m-5848 -82 c107 -70 120 -239 26 -332 -81 -82 -197 -84
-280 -6 -111 104 -75 302 65 362 13 5 52 9 85 7 48 -2 71 -9 104 -31z m278 0
l4 -29 21 26 c12 15 37 30 55 33 l32 7 0 -77 c0 -48 -4 -76 -11 -76 -21 0 -78
-32 -85 -48 -5 -9 -11 -62 -14 -117 l-5 -100 -67 -3 -68 -3 0 204 c0 112 3
207 7 211 4 4 34 6 68 4 58 -3 60 -4 63 -32z m290 -2 l3 -31 34 34 c20 20 43
33 59 33 26 0 26 -1 26 -75 l0 -74 -34 -7 c-19 -3 -45 -17 -58 -31 -20 -22
-23 -36 -26 -129 l-4 -104 -64 0 -64 0 0 210 0 211 63 -3 c61 -3 62 -3 65 -34z
m269 24 c5 -7 23 -57 38 -111 16 -54 32 -100 35 -102 4 -2 20 42 35 98 16 56
33 108 38 115 13 17 127 17 127 -1 0 -19 -134 -417 -153 -454 -27 -51 -63 -73
-119 -73 -57 0 -122 24 -116 42 3 7 11 30 19 51 12 34 16 37 39 32 43 -11 60
-9 60 8 0 6 -31 98 -69 202 -38 105 -67 193 -64 198 7 12 120 8 130 -5z m1697
-11 c50 -27 85 -93 93 -170 l6 -57 -127 0 c-69 0 -126 -4 -126 -9 0 -5 9 -19
19 -32 24 -30 89 -33 120 -5 20 18 21 18 55 -10 19 -16 34 -36 33 -44 -1 -8
-22 -28 -45 -45 -38 -26 -52 -30 -110 -30 -83 0 -130 26 -169 93 -51 86 -33
223 39 289 52 48 147 58 212 20z m466 -2 l0 -24 36 24 c43 29 100 33 144 10
132 -69 130 -335 -3 -396 -56 -25 -87 -24 -131 6 -20 14 -39 25 -41 25 -3 0
-5 -36 -5 -80 l0 -80 -65 0 -65 0 0 263 c0 145 3 267 7 270 3 4 33 7 65 7 55
0 58 -1 58 -25z m608 -2 c62 -47 67 -61 70 -234 l4 -159 -66 0 c-54 0 -66 3
-66 16 0 9 -3 14 -7 12 -85 -44 -134 -46 -183 -10 -64 48 -59 163 10 210 31
21 43 23 108 19 39 -2 72 -1 72 3 0 4 -8 18 -18 31 -20 24 -59 29 -124 15 -37
-8 -37 -8 -48 34 -6 23 -9 48 -6 55 14 37 206 44 254 8z m360 7 c40 -25 42
-25 42 0 0 19 5 21 63 18 l62 -3 0 -200 c0 -195 -1 -201 -25 -244 -14 -25 -40
-54 -59 -65 -47 -27 -161 -33 -232 -12 -83 25 -84 26 -61 80 12 25 23 46 25
46 3 0 21 -7 40 -15 41 -17 119 -20 147 -5 16 8 40 58 40 82 0 4 -18 -4 -40
-18 -34 -23 -48 -26 -91 -22 -62 6 -97 31 -126 88 -46 90 -20 217 56 267 44
30 113 31 159 3z m490 6 c60 -31 94 -91 107 -183 l7 -53 -126 0 c-69 0 -126
-3 -126 -8 0 -20 33 -51 60 -57 22 -5 41 -1 67 15 l36 21 34 -34 34 -33 -32
-32 c-84 -82 -236 -60 -299 43 -27 43 -37 134 -21 192 13 48 51 97 96 124 36
23 124 25 163 5z m482 -11 l0 -24 36 24 c50 34 112 34 153 0 41 -35 53 -99 49
-260 l-3 -130 -67 -3 -68 -3 0 126 c0 137 -8 165 -45 165 -44 0 -55 -32 -55
-167 l0 -123 -65 0 -65 0 0 210 0 210 65 0 c62 0 65 -1 65 -25z m573 11 c76
-32 121 -104 121 -196 0 -81 -29 -140 -92 -185 -38 -26 -52 -30 -112 -30 -60
0 -73 4 -111 31 -61 44 -89 101 -89 178 1 95 37 158 115 199 37 20 125 22 168
3z m1201 4 c14 -5 43 -26 66 -46 77 -70 88 -190 26 -282 -41 -61 -93 -87 -173
-87 -52 0 -68 5 -104 30 -135 95 -120 301 26 378 34 18 121 22 159 7z m316
-128 c4 -117 7 -135 24 -148 11 -8 23 -14 26 -14 3 0 15 6 26 14 17 13 20 31
24 148 l5 133 65 0 65 0 0 -205 0 -205 -67 -3 c-67 -3 -68 -2 -68 22 l0 25
-26 -24 c-77 -71 -183 -28 -204 84 -11 61 -14 294 -3 305 4 4 34 6 68 4 l60
-3 5 -133z m438 110 l3 -23 30 26 c57 47 146 29 180 -37 16 -32 19 -59 19
-198 l0 -160 -65 0 -65 0 0 123 c0 95 -4 128 -16 145 -17 24 -56 29 -72 9 -7
-8 -13 -68 -14 -143 l-3 -129 -67 -3 -68 -3 0 204 c0 112 3 207 7 211 4 4 34
6 68 4 54 -3 60 -5 63 -26z m-6178 -314 c0 -40 -5 -90 -10 -110 -14 -48 -61
-88 -106 -88 -31 0 -34 3 -34 30 0 17 5 30 12 30 16 0 48 31 48 47 0 7 -11 13
-25 13 -24 0 -25 2 -25 75 l0 75 70 0 70 0 0 -72z"/>
<path d="M6374 6228 c-170 -204 -310 -375 -312 -380 -2 -4 138 -8 312 -8 l316
0 0 380 c0 209 -2 380 -4 380 -1 0 -142 -167 -312 -372z"/>
<path d="M12800 6532 c-30 -37 -166 -201 -303 -365 -137 -164 -251 -305 -254
-313 -4 -12 40 -14 308 -12 l314 3 3 378 c1 207 -1 377 -5 377 -5 0 -33 -31
-63 -68z"/>
<path d="M9820 7113 c-27 -10 -53 -37 -70 -75 -9 -21 -35 -51 -58 -67 -55 -40
-92 -106 -99 -176 -5 -48 -10 -58 -31 -66 -21 -8 -29 -4 -65 37 -56 64 -106
92 -174 100 -34 5 -71 17 -91 31 -42 28 -94 30 -141 5 -65 -32 -90 -96 -66
-166 47 -136 238 -121 269 22 9 37 12 38 50 13 50 -33 87 -112 56 -123 -6 -2
-6 -8 0 -18 8 -13 10 -12 10 3 0 9 5 17 10 17 6 0 10 -4 10 -9 0 -5 11 -12 25
-15 17 -4 23 -11 18 -19 -4 -7 0 -7 10 2 10 8 20 12 23 9 2 -3 -17 -22 -43
-42 -97 -74 -147 -163 -148 -263 0 -47 5 -68 21 -90 45 -61 120 -76 195 -39
37 18 42 20 35 7 -4 -5 0 -12 6 -15 7 -3 2 -3 -11 0 -16 4 -21 3 -17 -5 4 -6
-1 -14 -11 -18 -10 -4 -22 -12 -28 -18 -15 -18 -91 -45 -128 -46 -45 -1 -103
-24 -99 -39 7 -30 -47 -40 -73 -13 -16 16 -16 18 5 35 17 14 19 18 6 18 -9 0
-16 5 -16 11 0 5 -4 8 -9 4 -5 -3 -16 1 -24 10 -13 13 -15 10 -20 -18 -10 -67
48 -282 80 -294 13 -5 66 3 243 39 233 47 612 168 761 244 46 23 49 27 49 62
0 60 -26 166 -59 239 -88 201 -272 344 -461 359 -14 1 -30 2 -36 3 -31 3 -22
124 12 152 13 11 17 10 26 -4 17 -30 87 -60 130 -54 55 7 87 32 109 83 27 60
17 107 -31 157 -34 33 -43 37 -86 36 -27 0 -56 -3 -64 -6z m138 -47 c32 -30
37 -40 37 -78 0 -114 -124 -167 -203 -88 -76 75 -23 200 84 200 37 0 51 -6 82
-34z m-734 -187 c36 -28 49 -57 48 -102 -2 -49 -16 -74 -55 -97 -96 -59 -216
41 -173 144 29 69 125 99 180 55z m563 -297 l23 -7 -20 -32 c-32 -53 -90 -41
-90 19 0 25 3 28 33 27 17 -1 42 -4 54 -7z m-159 -41 c4 -24 -23 -61 -44 -61
-7 0 -26 11 -41 24 l-28 25 45 20 c52 24 64 23 68 -8z m300 -27 l36 -36 -24
-14 c-59 -32 -103 0 -80 57 7 16 17 29 22 29 6 0 26 -16 46 -36z m-442 -59 c9
-35 -1 -53 -31 -61 -41 -10 -48 7 -20 49 30 43 42 46 51 12z m228 -101 c9 -8
16 -19 16 -23 0 -9 -91 -24 -98 -16 -3 3 0 16 6 30 13 29 52 34 76 9z m163 1
c11 -8 23 -24 26 -36 5 -20 3 -20 -46 -14 -29 4 -54 9 -56 11 -7 7 29 54 42
54 7 0 22 -7 34 -15z m-336 -45 c28 -16 23 -26 -21 -44 -56 -22 -63 -21 -55
11 10 42 37 53 76 33z"/>
<path d="M9836 7021 c-25 -27 -17 -72 15 -90 24 -13 29 -13 53 2 47 31 27 107
-28 107 -13 0 -31 -9 -40 -19z m44 -66 c0 -8 -4 -15 -10 -15 -5 0 -10 7 -10
15 0 8 5 15 10 15 6 0 10 -7 10 -15z"/>
<path d="M9117 6822 c-26 -28 -21 -69 9 -89 24 -15 29 -15 53 -2 16 9 27 25
29 43 7 55 -56 87 -91 48z m64 -65 c-13 -13 -26 -3 -16 12 3 6 11 8 17 5 6 -4
6 -10 -1 -17z"/>
<path d="M8884 6169 c-33 -17 -57 -66 -50 -103 7 -35 38 -70 72 -80 16 -5 27
-27 49 -102 28 -96 37 -108 73 -102 19 3 18 7 -11 110 -29 104 -30 109 -12
128 28 31 25 94 -6 125 -28 29 -83 40 -115 24z"/>
<path d="M9518 6163 c7 -3 16 -2 19 1 4 3 -2 6 -13 5 -11 0 -14 -3 -6 -6z"/>
<path d="M13829 3627 c-42 -32 -49 -85 -19 -134 16 -27 26 -33 53 -33 40 0 64
23 73 68 15 76 -54 140 -107 99z"/>
<path d="M5745 3615 c-54 -53 -18 -155 54 -155 68 0 95 97 42 151 -36 35 -64
37 -96 4z"/>
<path d="M8312 3638 c-5 -7 -12 -22 -14 -33 -3 -18 3 -20 55 -23 62 -3 70 5
41 46 -17 24 -65 30 -82 10z"/>
<path d="M8940 3620 c-56 -56 -26 -160 45 -160 38 0 62 24 71 68 17 82 -63
145 -116 92z"/>
<path d="M9370 3500 c-35 -35 -19 -70 31 -70 45 0 81 70 43 84 -29 11 -54 6
-74 -14z"/>
<path d="M9795 3625 c-62 -61 9 -166 84 -125 10 5 24 23 31 40 16 38 0 82 -36
99 -37 16 -52 14 -79 -14z"/>
<path d="M10246 3628 c-28 -40 -21 -48 44 -48 65 0 72 8 44 48 -10 14 -26 22
-44 22 -18 0 -34 -8 -44 -22z"/>
<path d="M11295 3615 c-36 -35 -37 -95 -2 -132 35 -38 88 -29 113 19 21 40 11
91 -23 118 -34 26 -59 25 -88 -5z"/>
<path d="M12504 3617 c-36 -31 -38 -96 -4 -132 63 -67 153 10 116 98 -24 59
-67 72 -112 34z"/>
</g>
</svg>
